<svg id="visual" viewBox="0 0 900 600" width="900" height="600" xmlns="http://www.w3.org/2000/svg" xmlns:xlink="http://www.w3.org/1999/xlink" version="1.1"><rect x="0" y="0" width="900" height="600" fill="#001220"></rect><defs><linearGradient id="grad1_0" x1="33.3%" y1="0%" x2="100%" y2="100%"><stop offset="20%" stop-color="#001220" stop-opacity="1"></stop><stop offset="80%" stop-color="#001220" stop-opacity="1"></stop></linearGradient></defs><defs><linearGradient id="grad2_0" x1="0%" y1="0%" x2="66.7%" y2="100%"><stop offset="20%" stop-color="#001220" stop-opacity="1"></stop><stop offset="80%" stop-color="#001220" stop-opacity="1"></stop></linearGradient></defs><g transform="translate(900, 0)"><path d="M0 351.5C-47.2 342.6 -94.3 333.6 -128.2 309.5C-162.1 285.4 -182.6 246.2 -217.1 217.1C-251.6 188 -300 169 -324.8 134.5C-349.5 100 -350.5 50 -351.5 0L0 0Z" fill="#FF6F61"></path></g><g transform="translate(0, 600)"><path d="M0 -351.5C42.9 -342.7 85.8 -333.8 132.4 -319.7C179 -305.5 229.3 -286.1 248.6 -248.6C267.8 -211.1 255.9 -155.4 267.9 -111C279.9 -66.5 315.7 -33.3 351.5 0L0 0Z" fill="#FF6F61"></path></g></svg>